<svg width="12" height="11" viewBox="0 0 12 11" fill="none" xmlns="http://www.w3.org/2000/svg">
<path fill-rule="evenodd" clip-rule="evenodd" d="M6.55562 0.377038C7.13506 0.0934176 7.64052 -8.33292e-07 8.42468 8.72179e-06C10.4314 0.00831906 11.9167 1.70074 11.9167 3.85659C11.9167 5.5021 10.9992 7.09163 9.29023 8.62866C8.3932 9.43544 7.24788 10.2338 6.42764 10.6586L5.95834 10.9016L5.48904 10.6586C4.66881 10.2338 3.52349 9.43544 2.62646 8.62866C0.917494 7.09163 0 5.5021 0 3.85659C0 1.67768 1.47141 0 3.49622 0C4.25224 0 4.78364 0.102253 5.37432 0.394405C5.57998 0.496121 5.7732 0.616773 5.95291 0.756034C6.13982 0.608502 6.34109 0.482044 6.55562 0.377038Z" fill="#F1FAEE"/>
</svg>
