<svg width="23" height="30" viewBox="0 0 23 30" fill="none" xmlns="http://www.w3.org/2000/svg">
<path d="M23 15.236C23 14.7505 22.6081 14.3571 22.1246 14.3571H20.7238V0.878906C20.7238 0.393448 20.332 0 19.8485 0C19.365 0 18.9729 0.393448 18.9729 0.878906V1.99242H4.03188V0.878906C4.03188 0.393448 3.64003 0 3.15653 0C2.67303 0 2.28094 0.393448 2.28094 0.878906V14.3571H0.875585C0.392087 14.3571 0 14.7505 0 15.236C0 16.7587 0.839339 18.1025 2.11111 18.8914L9.94077 24.2441L3.87733 28.3944C3.47772 28.6677 3.37423 29.2145 3.64641 29.6157C3.81601 29.8654 4.09093 30 4.37086 30C4.54046 30 4.71211 29.9506 4.86279 29.8476L11.5 25.31L18.1374 29.8476C18.2881 29.9506 18.4595 30 18.6294 30C18.9093 30 19.1844 29.8654 19.3538 29.6157C19.626 29.2145 19.5225 28.6677 19.1229 28.3944L13.0704 24.2365L20.8891 18.8914C22.1607 18.1025 23 16.7585 23 15.236ZM18.9729 3.75046V7.6767H4.03188V3.75046H18.9729ZM4.03188 9.43474H18.9729V14.3571H4.03188V9.43474ZM21.0785 16.1151C20.6675 17.1382 19.5597 17.8732 18.2612 17.8732H4.73901C3.44033 17.8732 2.33269 17.1382 1.92168 16.1151H21.0785ZM6.36662 19.6312H16.6801L11.5139 23.1672L6.36662 19.6312Z" fill="#F1FAEE"/>
</svg>
