<svg width="12" height="11" viewBox="0 0 12 11" fill="none" xmlns="http://www.w3.org/2000/svg">
<path fill-rule="evenodd" clip-rule="evenodd" d="M6.5556 0.377039C7.13504 0.0934179 7.64051 -8.33295e-07 8.42467 8.72182e-06C10.4314 0.00831909 11.9167 1.70075 11.9167 3.8566C11.9167 5.50212 10.9992 7.09165 9.29021 8.62869C8.39318 9.43548 7.24787 10.2339 6.42763 10.6586L5.95833 10.9017L5.48903 10.6586C4.6688 10.2339 3.52348 9.43548 2.62645 8.62869C0.917492 7.09165 0 5.50212 0 3.8566C0 1.67769 1.4714 0 3.49621 0C4.25223 0 4.78363 0.102253 5.37431 0.394406C5.57997 0.496122 5.77319 0.616775 5.9529 0.756037C6.13981 0.608504 6.34108 0.482045 6.5556 0.377039Z" fill="#E63946"/>
</svg>
