<svg width="14" height="4" viewBox="0 0 14 4" fill="none" xmlns="http://www.w3.org/2000/svg">
<path fill-rule="evenodd" clip-rule="evenodd" d="M1.75 3.5C0.921573 3.5 0.25 2.82843 0.25 2C0.25 1.17157 0.921573 0.5 1.75 0.5C2.57843 0.5 3.25 1.17157 3.25 2C3.25 2.82843 2.57843 3.5 1.75 3.5ZM7 3.5C6.17157 3.5 5.5 2.82843 5.5 2C5.5 1.17157 6.17157 0.5 7 0.5C7.82843 0.5 8.5 1.17157 8.5 2C8.5 2.82843 7.82843 3.5 7 3.5ZM10.75 2C10.75 2.82843 11.4216 3.5 12.25 3.5C13.0784 3.5 13.75 2.82843 13.75 2C13.75 1.17157 13.0784 0.5 12.25 0.5C11.4216 0.5 10.75 1.17157 10.75 2Z" fill="#F1FAEE"/>
</svg>
