<svg width="250" height="297" viewBox="0 0 250 297" fill="none" xmlns="http://www.w3.org/2000/svg">
<rect x="46" y="156" width="182" height="118" fill="#F1FAEE"/>
<rect x="87" y="179" width="124" height="22" fill="#1D3557"/>
<rect x="125" y="190" width="26" height="66" fill="#1D3557"/>
<rect x="185" y="179" width="26" height="77" fill="#1D3557"/>
<rect x="65" y="179" width="26" height="77" fill="#1D3557"/>
<path d="M86.5673 134.263L235.882 67.1779L206.272 0L0 92.6757L24.2249 147.635V296.027H250V134.263H86.5673V134.263ZM228.151 273.969H46.0741V156.322H228.151V273.969ZM144.481 51.9066L129.71 90.7353L91.401 107.947L106.172 69.1177L144.481 51.9066ZM157.94 78.0522L172.709 39.2228L195.193 29.1221L207.037 55.9927L157.94 78.0522ZM77.9419 81.8015L63.1711 120.631L40.689 130.732L28.8446 103.86L77.9419 81.8015Z" fill="#1D3557"/>
<path d="M63.4683 120.819L78.3362 80.3263L28.8451 103.417L40.745 131.077L63.4683 120.819Z" fill="#A8DADC" stroke="#1D3557"/>
<path d="M130 90.5L91.5 108L106 69L144.5 52L130 90.5Z" fill="#E63946" stroke="#1D3557"/>
<path d="M172.5 39L158 78L207 55.5L195 29L172.5 39Z" fill="#457B9D" stroke="#1D3557"/>
</svg>
