<svg width="30" height="30" viewBox="0 0 30 30" fill="none" xmlns="http://www.w3.org/2000/svg">
<circle cx="15" cy="15" r="15" fill="#1D3557"/>
<circle cx="15" cy="15" r="13" fill="#A8DADC"/>
<path d="M15 14.7C17.2094 14.7 19 12.9765 19 10.85C19 8.72348 17.2094 7 15 7C12.7906 7 11 8.72348 11 10.85C11 12.9765 12.7906 14.7 15 14.7ZM17.8 15.6625H17.2781C16.5844 15.9693 15.8125 16.1437 15 16.1437C14.1875 16.1437 13.4188 15.9693 12.7219 15.6625H12.2C9.88125 15.6625 8 17.4732 8 19.705V20.9562C8 21.7533 8.67188 22.4 9.5 22.4H20.5C21.3281 22.4 22 21.7533 22 20.9562V19.705C22 17.4732 20.1188 15.6625 17.8 15.6625Z" fill="#1D3557"/>
</svg>
